# xmcd
#
# Track frame offsets:
#	150
#	10387
#	24612
#	33922
#	46400
#	55912
#	68935
#	80712
#	95762
#	108270
#	122012
#	132535
#	144300
#	162375
#	172487
#	184725
#
# Disc length: 2682
#
# Revision: 4
# Processed by: cddbd v1.5.2PL0 Copyright (c) Steve Scherf et al.
# Submitted via: Broken Cross Disk Manager 3.94.2201
#
DISCID=e90a7810
DTITLE=Various Artist - Trucker Hits2 King of the Road
DYEAR=1988
DGENRE=
TTITLE0=Dave Duddley - Been around the Horn
TTITLE1=John O´Hara - Highway 40 Blues
TTITLE2=Jack Livingstone - Trucker's Way of Life
TTITLE3=Ricky Williams - From a Rolls to the Rail
TTITLE4=Dave Dúdley - Rolling on your Truck
TTITLE5=Buddy Jefferson - King of the Road
TTITLE6=John "Pete" Moore - Ode to 10-23
TTITLE7=Don Micahel - Two Car Garage
TTITLE8=George Kent - Hardscuffle road
TTITLE9=John "Pete" Moore - Bringing Little Mary Home
TTITLE10=George Pride - Trucker's Lady
TTITLE11=Hank Dorston - Gimme 40 Acres
TTITLE12=Dave Dudley - Rooster Hill
TTITLE13=David Price - Jack Knife
TTITLE14=John "Pete" Moore - Freightliner Fever
TTITLE15=Ricky Williams - Roll On (Eighteen Wheeler)
EXTD=
EXTT0=
EXTT1=
EXTT2=
EXTT3=
EXTT4=
EXTT5=
EXTT6=
EXTT7=
EXTT8=
EXTT9=
EXTT10=
EXTT11=
EXTT12=
EXTT13=
EXTT14=
EXTT15=
PLAYORDER=
